<svg xmlns="http://www.w3.org/2000/svg" version="1.1" xmlns:xlink="http://www.w3.org/1999/xlink" xmlns:svgjs="http://svgjs.dev/svgjs" width="1500" height="1500"><svg id="SvgjsSvg1001" data-name="Layer 1" xmlns="http://www.w3.org/2000/svg" viewBox="0 0 1500 1500" width="1500" height="1500">
  <path class="cls-1" d="m590.2 613.98c-13.75 19.92-29.37 38.59-46.61 55.78-16.88 16.83-35.3 32.15-55.04 45.74 6.77 96.49 34.48 189.64 79.79 273.3 44.59 82.34 106.21 155.41 181.65 213.35 75.45-57.94 137.07-131.02 181.65-213.35 45.32-83.67 73.02-176.81 79.79-273.3-19.73-13.59-38.14-28.92-55.04-45.74-17.24-17.19-32.86-35.86-46.6-55.78h-179.04v-54.56h208.62l8.05 12.68c13.68 21.58 29.57 41.39 47.32 59.09 17.92 17.84 37.78 33.71 59.24 47.24l13.43 8.46-.74 15.84c-5.18 110.28-35.62 216.81-87.09 311.87-51.52 95.12-124.16 178.87-213.74 243.5l-15.87 11.45-15.87-11.45c-89.57-64.64-162.21-148.39-213.72-243.5-51.48-95.06-81.91-201.59-87.09-311.87l-.74-15.84 13.42-8.46c21.48-13.53 41.34-29.39 59.25-47.24 17.75-17.7 33.65-37.51 47.33-59.09l8.05-12.68h61.04v54.56h-31.46Zm97.01-485.53h35.51v183.27h-131.55v54.56h317.66v-54.56h-131.54v-183.27h35.5v-54.55h-125.57v54.55Zm136.57 296.94h206.62l5.62 19.93c9.8 34.78 28.37 65.84 53.22 90.69 24.86 24.85 55.91 43.41 90.69 53.22l18.57 5.24 1.24 19.27c10.73 164.97-26.32 325.69-102.06 465.38-75.75 139.7-190.24 258.46-334.38 339.52l-13.32 7.49-13.31-7.49c-144.14-81.06-258.63-199.82-334.38-339.52-75.73-139.7-112.78-300.42-102.07-465.38l1.26-19.27 18.56-5.24c34.79-9.81 65.84-28.37 90.69-53.22 24.85-24.85 43.42-55.91 53.22-90.69l5.63-19.93h233.89v505.53c7.38 17.92 16.37 35.09 26.84 51.29 6.07 9.43 12.65 18.51 19.68 27.23 7.03-8.72 13.61-17.81 19.69-27.23 10.45-16.2 19.46-33.37 26.83-51.29v-289.66h54.55v294.8c-8.23 42.59-51.11 102-81.57 133.3l-19.51 20.03-19.49-20.03c-30.46-31.3-73.33-90.71-81.57-133.3v-456.13h-139.02c-13.31 36-34.13 68.17-60.59 94.63-26.73 26.73-59.28 47.71-95.72 60.99-6.23 148.02 28.48 291.84 96.65 417.55 68.62 126.57 171.11 234.74 299.74 310.33 128.64-75.59 231.13-183.76 299.76-310.33 68.15-125.71 102.88-269.53 96.65-417.55-36.45-13.29-69.01-34.27-95.73-60.99-26.45-26.46-47.28-58.63-60.58-94.63h-139.02v52.21h-54.55v-106.76h27.27Z" fill="#eb9130" fill-rule="evenodd"></path>
</svg><style>@media (prefers-color-scheme: light) { :root { filter: none; } }
@media (prefers-color-scheme: dark) { :root { filter: none; } }
</style></svg>